<?xml version="1.0" encoding="UTF-8" standalone="no"?>
<!DOCTYPE svg PUBLIC "-//W3C//DTD SVG 1.1//EN" "http://www.w3.org/Graphics/SVG/1.1/DTD/svg11.dtd">
<svg width="100%" height="100%" viewBox="0 0 2048 2048" version="1.1" xmlns="http://www.w3.org/2000/svg" xmlns:xlink="http://www.w3.org/1999/xlink" xml:space="preserve" xmlns:serif="http://www.serif.com/" style="fill-rule:evenodd;clip-rule:evenodd;stroke-linejoin:round;stroke-miterlimit:2;">
    <g transform="matrix(10.44898,0,0,8.692699,0,0)">
        <rect x="0" y="0" width="196" height="235.6" style="fill:rgb(0,132,105);fill-rule:nonzero;"/>
    </g>
    <g transform="matrix(12.845953,0,0,10.390507,-230.047585,160.728909)">
        <path d="M53.07,3.44C46.89,3.44 43.46,8.61 43.46,12.66L43.46,152.96C43.46,158.89 47.85,162.69 52.74,162.69C58.63,162.69 62.61,157.84 62.61,153.27L62.61,12.67C62.61,7.43 58.24,3.41 53.07,3.41L53.07,3.44Z" style="fill:rgb(242,247,240);fill-rule:nonzero;"/>
    </g>
    <g transform="matrix(13.055182,0,0,10.386245,-241.555194,160.591467)">
        <path d="M71.65,58.82C68.78,58.82 67.78,61.26 67.78,62.73L67.78,103.47C67.78,106.08 69.65,107.44 71.49,107.44C73.71,107.44 75.21,105.62 75.21,103.62L75.21,62.72C75.21,60.29 73.52,58.82 71.65,58.82Z" style="fill:rgb(242,247,240);fill-rule:nonzero;"/>
    </g>
    <g transform="matrix(12.916112,0,0,10.363036,-232.401071,167.493215)">
        <path d="M84.52,44.86C81.78,44.86 80.66,47.06 80.66,48.63L80.66,116.81C80.66,119.46 82.66,120.61 84.36,120.61C86.77,120.61 88.17,118.66 88.17,116.81L88.17,48.44C88.17,46.21 86.59,44.86 84.52,44.86Z" style="fill:rgb(242,247,240);fill-rule:nonzero;"/>
    </g>
    <g transform="matrix(12.916112,0,0,10.410614,-230.735686,164.812028)">
        <path d="M97.32,30.9C94.51,30.9 93.39,32.92 93.39,34.61L93.39,130.24C93.39,132.85 95.33,134.16 97.12,134.16C99.27,134.16 100.9,132.45 100.9,130.44L100.9,34.38C100.9,32.27 99.36,30.9 97.32,30.9Z" style="fill:rgb(242,247,240);fill-rule:nonzero;"/>
    </g>
    <g transform="matrix(12.933333,0,0,10.325912,-235.424511,166.201363)">
        <path d="M110.3,17.23C107.52,17.23 106.47,19.36 106.47,20.86L106.47,75.24C106.47,77.85 108.51,79.21 110.27,79.21C112.6,79.21 113.97,77.29 113.97,75.51L113.97,20.43C113.97,18.41 112.31,17.23 110.3,17.23Z" style="fill:rgb(242,247,240);fill-rule:nonzero;"/>
    </g>
    <g transform="matrix(13.143631,0,0,10.364372,-256.285726,158.888292)">
        <path d="M123.1,3.44C120.32,3.44 118.99,5.46 118.99,7.05L118.99,61.22C118.99,63.83 120.85,65.19 122.6,65.19C124.94,65.19 126.37,63.27 126.37,61.49L126.37,6.82C126.37,4.8 124.87,3.44 123.1,3.44Z" style="fill:rgb(242,247,240);fill-rule:nonzero;"/>
    </g>
    <g transform="matrix(12.933333,0,0,10.421009,-234.730866,158.693463)">
        <path d="M136,3.44C133.29,3.44 132.1,5.53 132.1,7.09L132.1,47.61C132.1,50.22 134.04,51.42 135.8,51.42C138.21,51.42 139.6,49.42 139.6,47.61L139.6,6.78C139.6,4.76 137.94,3.44 136,3.44Z" style="fill:rgb(242,247,240);fill-rule:nonzero;"/>
    </g>
    <g transform="matrix(13.37931,0,0,10.452962,-294.798319,158.583545)">
        <path d="M148.5,3.44C145.69,3.44 144.6,5.53 144.6,7.09L144.6,34.23C144.6,36.84 146.54,37.88 148.12,37.88C150.53,37.88 151.85,36.07 151.85,34.38L151.85,6.63C151.85,4.61 150.3,3.44 148.5,3.44Z" style="fill:rgb(242,247,240);fill-rule:nonzero;"/>
    </g>
    <g transform="matrix(13.161465,0,0,10.443864,-256.160136,152.883172)">
        <path d="M110.1,86.92C107.32,86.92 106.2,89.02 106.2,90.58L106.2,144.23C106.2,146.84 108.11,148.2 109.87,148.2C112.2,148.2 113.57,146.28 113.57,144.5L113.57,90.12C113.57,88.1 112.03,86.92 110.1,86.92Z" style="fill:rgb(242,247,240);fill-rule:nonzero;"/>
    </g>
    <g transform="matrix(12.796834,0,0,10.330912,-215.404177,172.90388)">
        <path d="M123,100.5C120.22,100.5 119.02,102.6 119.02,104.16L119.02,158.7C119.02,160.71 120.67,162.45 122.71,162.45C125.31,162.45 126.6,160.35 126.6,158.48L126.6,103.7C126.6,101.68 125.05,100.5 123,100.5Z" style="fill:rgb(242,247,240);fill-rule:nonzero;"/>
    </g>
    <g transform="matrix(13.360882,0,0,10.364842,-291.477202,171.641467)">
        <path d="M136.1,113.8C133.31,113.8 132.12,115.89 132.12,117.45L132.12,158.67C132.12,160.68 133.66,162.04 135.61,162.04C138.02,162.04 139.38,160.12 139.38,158.34L139.38,117.14C139.38,115.13 137.84,113.8 136.1,113.8Z" style="fill:rgb(242,247,240);fill-rule:nonzero;"/>
    </g>
    <g transform="matrix(13.197279,0,0,10.321101,-263.725554,173.155952)">
        <path d="M148.1,127.7C145.32,127.7 144.24,129.79 144.24,131.36L144.24,159.18C144.24,160.84 145.78,162.58 147.83,162.58C150.08,162.58 151.59,160.66 151.59,158.88L151.59,130.97C151.59,129.15 149.83,127.7 148.1,127.7Z" style="fill:rgb(242,247,240);fill-rule:nonzero;"/>
    </g>
</svg>
